<svg width="57" height="6" viewBox="0 0 57 6" fill="none" xmlns="http://www.w3.org/2000/svg">
<path id="Line 14" d="M57 3L52 0.113244L52 5.88675L57 3ZM4.37114e-08 3.5L1.425 3.5L1.425 2.5L-4.37114e-08 2.5L4.37114e-08 3.5ZM4.275 3.5L7.125 3.5L7.125 2.5L4.275 2.5L4.275 3.5ZM9.975 3.5L12.825 3.5L12.825 2.5L9.975 2.5L9.975 3.5ZM15.675 3.5L18.525 3.5L18.525 2.5L15.675 2.5L15.675 3.5ZM21.375 3.5L24.225 3.5L24.225 2.5L21.375 2.5L21.375 3.5ZM27.075 3.5L29.925 3.5L29.925 2.5L27.075 2.5L27.075 3.5ZM32.775 3.5L35.625 3.5L35.625 2.5L32.775 2.5L32.775 3.5ZM38.475 3.5L41.325 3.5L41.325 2.5L38.475 2.5L38.475 3.5ZM44.175 3.5L47.025 3.5L47.025 2.5L44.175 2.5L44.175 3.5ZM49.875 3.5L52.725 3.5L52.725 2.5L49.875 2.5L49.875 3.5Z" fill="#B27E15" fill-opacity="0.46"/>
</svg>
